<mxfile host="app.diagrams.net" modified="2021-10-04T08:06:08.375Z" agent="5.0 (Windows NT 10.0; Win64; x64) AppleWebKit/537.36 (KHTML, like Gecko) Chrome/94.0.4606.71 Safari/537.36" etag="nXub0x3WGzcC5r8rBQUW" version="15.4.1" type="github">
  <diagram id="C5RBs43oDa-KdzZeNtuy" name="Page-1">
    <mxGraphModel dx="1038" dy="547" grid="1" gridSize="10" guides="1" tooltips="1" connect="1" arrows="1" fold="1" page="1" pageScale="1" pageWidth="827" pageHeight="1169" math="0" shadow="0">
      <root>
        <mxCell id="WIyWlLk6GJQsqaUBKTNV-0" />
        <mxCell id="WIyWlLk6GJQsqaUBKTNV-1" parent="WIyWlLk6GJQsqaUBKTNV-0" />
        <mxCell id="WIyWlLk6GJQsqaUBKTNV-2" value="" style="rounded=0;html=1;jettySize=auto;orthogonalLoop=1;fontSize=11;endArrow=block;endFill=0;endSize=8;strokeWidth=1;shadow=0;labelBackgroundColor=none;edgeStyle=orthogonalEdgeStyle;startArrow=none;" parent="WIyWlLk6GJQsqaUBKTNV-1" source="N371kGTxtI7seH6pq4vi-0" target="N371kGTxtI7seH6pq4vi-2" edge="1">
          <mxGeometry relative="1" as="geometry">
            <mxPoint x="220" y="230" as="targetPoint" />
          </mxGeometry>
        </mxCell>
        <mxCell id="WIyWlLk6GJQsqaUBKTNV-3" value="Start" style="rounded=1;whiteSpace=wrap;html=1;fontSize=12;glass=0;strokeWidth=1;shadow=0;" parent="WIyWlLk6GJQsqaUBKTNV-1" vertex="1">
          <mxGeometry x="200" y="20" width="120" height="40" as="geometry" />
        </mxCell>
        <mxCell id="N371kGTxtI7seH6pq4vi-0" value="Hello" style="rounded=1;whiteSpace=wrap;html=1;" vertex="1" parent="WIyWlLk6GJQsqaUBKTNV-1">
          <mxGeometry x="200" y="90" width="120" height="60" as="geometry" />
        </mxCell>
        <mxCell id="N371kGTxtI7seH6pq4vi-1" value="" style="rounded=0;html=1;jettySize=auto;orthogonalLoop=1;fontSize=11;endArrow=none;endFill=0;endSize=8;strokeWidth=1;shadow=0;labelBackgroundColor=none;edgeStyle=orthogonalEdgeStyle;" edge="1" parent="WIyWlLk6GJQsqaUBKTNV-1" source="WIyWlLk6GJQsqaUBKTNV-3" target="N371kGTxtI7seH6pq4vi-0">
          <mxGeometry relative="1" as="geometry">
            <mxPoint x="220" y="90" as="sourcePoint" />
            <mxPoint x="220" y="230" as="targetPoint" />
          </mxGeometry>
        </mxCell>
        <mxCell id="N371kGTxtI7seH6pq4vi-5" value="" style="edgeStyle=orthogonalEdgeStyle;rounded=0;orthogonalLoop=1;jettySize=auto;html=1;" edge="1" parent="WIyWlLk6GJQsqaUBKTNV-1" source="N371kGTxtI7seH6pq4vi-2" target="N371kGTxtI7seH6pq4vi-3">
          <mxGeometry relative="1" as="geometry" />
        </mxCell>
        <mxCell id="N371kGTxtI7seH6pq4vi-2" value="Welcome" style="shape=process;whiteSpace=wrap;html=1;backgroundOutline=1;" vertex="1" parent="WIyWlLk6GJQsqaUBKTNV-1">
          <mxGeometry x="200" y="190" width="120" height="60" as="geometry" />
        </mxCell>
        <mxCell id="N371kGTxtI7seH6pq4vi-3" value="&lt;span&gt;Welcome. I can tell you&amp;nbsp;&amp;nbsp;&lt;/span&gt;&amp;nbsp;testosterone, treatment options, etc.." style="shape=parallelogram;perimeter=parallelogramPerimeter;whiteSpace=wrap;html=1;fixedSize=1;" vertex="1" parent="WIyWlLk6GJQsqaUBKTNV-1">
          <mxGeometry x="64.5" y="280" width="391" height="100" as="geometry" />
        </mxCell>
      </root>
    </mxGraphModel>
  </diagram>
</mxfile>
